<svg id="visual" viewBox="0 0 960 300" width="960" height="300" xmlns="http://www.w3.org/2000/svg" xmlns:xlink="http://www.w3.org/1999/xlink" version="1.1"><path d="M0 215L14.5 214.5C29 214 58 213 87.2 213C116.3 213 145.7 214 174.8 208C204 202 233 189 262 187.3C291 185.7 320 195.3 349 196.3C378 197.3 407 189.7 436.2 190.2C465.3 190.7 494.7 199.3 523.8 198.8C553 198.3 582 188.7 611 189.3C640 190 669 201 698 200.3C727 199.7 756 187.3 785.2 187.7C814.3 188 843.7 201 872.8 201.8C902 202.7 931 191.3 945.5 185.7L960 180L960 301L945.5 301C931 301 902 301 872.8 301C843.7 301 814.3 301 785.2 301C756 301 727 301 698 301C669 301 640 301 611 301C582 301 553 301 523.8 301C494.7 301 465.3 301 436.2 301C407 301 378 301 349 301C320 301 291 301 262 301C233 301 204 301 174.8 301C145.7 301 116.3 301 87.2 301C58 301 29 301 14.5 301L0 301Z" fill="#ffa552"></path><path d="M0 196L14.5 199.7C29 203.3 58 210.7 87.2 214.7C116.3 218.7 145.7 219.3 174.8 215.8C204 212.3 233 204.7 262 205.5C291 206.3 320 215.7 349 221.3C378 227 407 229 436.2 224.5C465.3 220 494.7 209 523.8 205.5C553 202 582 206 611 210.5C640 215 669 220 698 222C727 224 756 223 785.2 222C814.3 221 843.7 220 872.8 218C902 216 931 213 945.5 211.5L960 210L960 301L945.5 301C931 301 902 301 872.8 301C843.7 301 814.3 301 785.2 301C756 301 727 301 698 301C669 301 640 301 611 301C582 301 553 301 523.8 301C494.7 301 465.3 301 436.2 301C407 301 378 301 349 301C320 301 291 301 262 301C233 301 204 301 174.8 301C145.7 301 116.3 301 87.2 301C58 301 29 301 14.5 301L0 301Z" fill="#f17771"></path><path d="M0 236L14.5 236C29 236 58 236 87.2 236.3C116.3 236.7 145.7 237.3 174.8 238.8C204 240.3 233 242.7 262 244.3C291 246 320 247 349 245.5C378 244 407 240 436.2 238.7C465.3 237.3 494.7 238.7 523.8 236.2C553 233.7 582 227.3 611 228.5C640 229.7 669 238.3 698 240.7C727 243 756 239 785.2 239.5C814.3 240 843.7 245 872.8 247C902 249 931 248 945.5 247.5L960 247L960 301L945.5 301C931 301 902 301 872.8 301C843.7 301 814.3 301 785.2 301C756 301 727 301 698 301C669 301 640 301 611 301C582 301 553 301 523.8 301C494.7 301 465.3 301 436.2 301C407 301 378 301 349 301C320 301 291 301 262 301C233 301 204 301 174.8 301C145.7 301 116.3 301 87.2 301C58 301 29 301 14.5 301L0 301Z" fill="#bf5f8a"></path><path d="M0 260L14.5 257.8C29 255.7 58 251.3 87.2 248C116.3 244.7 145.7 242.3 174.8 241.5C204 240.7 233 241.3 262 246.2C291 251 320 260 349 262.7C378 265.3 407 261.7 436.2 259.5C465.3 257.3 494.7 256.7 523.8 257.8C553 259 582 262 611 259.8C640 257.7 669 250.3 698 250C727 249.7 756 256.3 785.2 256.7C814.3 257 843.7 251 872.8 249C902 247 931 249 945.5 250L960 251L960 301L945.5 301C931 301 902 301 872.8 301C843.7 301 814.3 301 785.2 301C756 301 727 301 698 301C669 301 640 301 611 301C582 301 553 301 523.8 301C494.7 301 465.3 301 436.2 301C407 301 378 301 349 301C320 301 291 301 262 301C233 301 204 301 174.8 301C145.7 301 116.3 301 87.2 301C58 301 29 301 14.5 301L0 301Z" fill="#79558b"></path><path d="M0 280L14.5 279C29 278 58 276 87.2 277C116.3 278 145.7 282 174.8 282.3C204 282.7 233 279.3 262 278.8C291 278.3 320 280.7 349 280.8C378 281 407 279 436.2 278.3C465.3 277.7 494.7 278.3 523.8 277.5C553 276.7 582 274.3 611 272.8C640 271.3 669 270.7 698 271.7C727 272.7 756 275.3 785.2 277.2C814.3 279 843.7 280 872.8 278.3C902 276.7 931 272.3 945.5 270.2L960 268L960 301L945.5 301C931 301 902 301 872.8 301C843.7 301 814.3 301 785.2 301C756 301 727 301 698 301C669 301 640 301 611 301C582 301 553 301 523.8 301C494.7 301 465.3 301 436.2 301C407 301 378 301 349 301C320 301 291 301 262 301C233 301 204 301 174.8 301C145.7 301 116.3 301 87.2 301C58 301 29 301 14.5 301L0 301Z" fill="#324871"></path></svg>