<svg id="visual" viewBox="0 0 960 50" width="960" height="50" xmlns="http://www.w3.org/2000/svg" xmlns:xlink="http://www.w3.org/1999/xlink" version="1.1"><rect x="0" y="0" width="960" height="50" fill="#122A40"></rect><path d="M0 13L8 14.7C16 16.3 32 19.7 48 20C64 20.3 80 17.7 96 17C112 16.3 128 17.7 144 20.2C160 22.7 176 26.3 192 29C208 31.7 224 33.3 240 31.3C256 29.3 272 23.7 288 23.2C304 22.7 320 27.3 336 27.8C352 28.3 368 24.7 384 24.2C400 23.7 416 26.3 432 25.5C448 24.7 464 20.3 480 19.5C496 18.7 512 21.3 528 23.8C544 26.3 560 28.7 576 29C592 29.3 608 27.7 624 27.7C640 27.7 656 29.3 672 28.2C688 27 704 23 720 22C736 21 752 23 768 22.5C784 22 800 19 816 17.8C832 16.7 848 17.3 864 20.3C880 23.3 896 28.7 912 28.3C928 28 944 22 952 19L960 16L960 51L952 51C944 51 928 51 912 51C896 51 880 51 864 51C848 51 832 51 816 51C800 51 784 51 768 51C752 51 736 51 720 51C704 51 688 51 672 51C656 51 640 51 624 51C608 51 592 51 576 51C560 51 544 51 528 51C512 51 496 51 480 51C464 51 448 51 432 51C416 51 400 51 384 51C368 51 352 51 336 51C320 51 304 51 288 51C272 51 256 51 240 51C224 51 208 51 192 51C176 51 160 51 144 51C128 51 112 51 96 51C80 51 64 51 48 51C32 51 16 51 8 51L0 51Z" fill="#F76F26" stroke-linecap="round" stroke-linejoin="miter"></path></svg>