<svg id="visual" viewBox="0 0 960 300" width="960" height="300" xmlns="http://www.w3.org/2000/svg" xmlns:xlink="http://www.w3.org/1999/xlink" version="1.1"><rect x="0" y="0" width="960" height="300" fill="#122A40"></rect><path d="M0 164L14.5 164.2C29 164.3 58 164.7 87.2 153.8C116.3 143 145.7 121 174.8 109C204 97 233 95 262 103.2C291 111.3 320 129.7 349 133C378 136.3 407 124.7 436.2 126.5C465.3 128.3 494.7 143.7 523.8 146C553 148.3 582 137.7 611 138.5C640 139.3 669 151.7 698 154.3C727 157 756 150 785.2 141.7C814.3 133.3 843.7 123.7 872.8 114.5C902 105.3 931 96.7 945.5 92.3L960 88L960 301L945.5 301C931 301 902 301 872.8 301C843.7 301 814.3 301 785.2 301C756 301 727 301 698 301C669 301 640 301 611 301C582 301 553 301 523.8 301C494.7 301 465.3 301 436.2 301C407 301 378 301 349 301C320 301 291 301 262 301C233 301 204 301 174.8 301C145.7 301 116.3 301 87.2 301C58 301 29 301 14.5 301L0 301Z" fill="#f76f26"></path><path d="M0 142L14.5 147C29 152 58 162 87.2 172.3C116.3 182.7 145.7 193.3 174.8 191.7C204 190 233 176 262 166.8C291 157.7 320 153.3 349 159C378 164.7 407 180.3 436.2 183.3C465.3 186.3 494.7 176.7 523.8 167.5C553 158.3 582 149.7 611 148.7C640 147.7 669 154.3 698 159.8C727 165.3 756 169.7 785.2 173.3C814.3 177 843.7 180 872.8 181.3C902 182.7 931 182.3 945.5 182.2L960 182L960 301L945.5 301C931 301 902 301 872.8 301C843.7 301 814.3 301 785.2 301C756 301 727 301 698 301C669 301 640 301 611 301C582 301 553 301 523.8 301C494.7 301 465.3 301 436.2 301C407 301 378 301 349 301C320 301 291 301 262 301C233 301 204 301 174.8 301C145.7 301 116.3 301 87.2 301C58 301 29 301 14.5 301L0 301Z" fill="#fb2b65"></path><path d="M0 207L14.5 207.5C29 208 58 209 87.2 204.8C116.3 200.7 145.7 191.3 174.8 188.7C204 186 233 190 262 192.8C291 195.7 320 197.3 349 198.8C378 200.3 407 201.7 436.2 200.5C465.3 199.3 494.7 195.7 523.8 198.3C553 201 582 210 611 212.7C640 215.3 669 211.7 698 215.7C727 219.7 756 231.3 785.2 229.3C814.3 227.3 843.7 211.7 872.8 205.7C902 199.7 931 203.3 945.5 205.2L960 207L960 301L945.5 301C931 301 902 301 872.8 301C843.7 301 814.3 301 785.2 301C756 301 727 301 698 301C669 301 640 301 611 301C582 301 553 301 523.8 301C494.7 301 465.3 301 436.2 301C407 301 378 301 349 301C320 301 291 301 262 301C233 301 204 301 174.8 301C145.7 301 116.3 301 87.2 301C58 301 29 301 14.5 301L0 301Z" fill="#ce1ba5"></path><path d="M0 223L14.5 229.2C29 235.3 58 247.7 87.2 255C116.3 262.3 145.7 264.7 174.8 262.7C204 260.7 233 254.3 262 248.7C291 243 320 238 349 235.3C378 232.7 407 232.3 436.2 231.3C465.3 230.3 494.7 228.7 523.8 228.7C553 228.7 582 230.3 611 234.8C640 239.3 669 246.7 698 245C727 243.3 756 232.7 785.2 234.8C814.3 237 843.7 252 872.8 252.7C902 253.3 931 239.7 945.5 232.8L960 226L960 301L945.5 301C931 301 902 301 872.8 301C843.7 301 814.3 301 785.2 301C756 301 727 301 698 301C669 301 640 301 611 301C582 301 553 301 523.8 301C494.7 301 465.3 301 436.2 301C407 301 378 301 349 301C320 301 291 301 262 301C233 301 204 301 174.8 301C145.7 301 116.3 301 87.2 301C58 301 29 301 14.5 301L0 301Z" fill="#534ad3"></path></svg>